<svg width="70" height="70" viewBox="0 0 70 70" fill="none" xmlns="http://www.w3.org/2000/svg">
<path d="M0 32C0 20.7989 0 15.1984 2.17987 10.9202C4.09734 7.15695 7.15695 4.09734 10.9202 2.17987C15.1984 0 20.7989 0 32 0H38C49.201 0 54.8016 0 59.0798 2.17987C62.8431 4.09734 65.9027 7.15695 67.8201 10.9202C70 15.1984 70 20.7989 70 32V38C70 49.201 70 54.8016 67.8201 59.0798C65.9027 62.8431 62.8431 65.9027 59.0798 67.8201C54.8016 70 49.2011 70 38 70H32C20.7989 70 15.1984 70 10.9202 67.8201C7.15695 65.9027 4.09734 62.8431 2.17987 59.0798C0 54.8016 0 49.2011 0 38V32Z" fill="#111A49"/>
<path d="M20 33L20 34.9067C20 38.7897 20 40.7312 20.7557 42.2143C21.4204 43.5189 22.4811 44.5796 23.7857 45.2443C25.2688 46 27.2103 46 31.0933 46H34.9067C38.7897 46 40.7312 46 42.2143 45.2443C43.5189 44.5796 44.5796 43.5189 45.2443 42.2143C46 40.7312 46 38.7897 46 34.9067V31.0933C46 27.2103 46 25.2688 45.2443 23.7857C44.5796 22.4811 43.5189 21.4204 42.2143 20.7557C40.7312 20 38.7897 20 34.9067 20L33 20M20 33L33 20M20 33L24.68 33C27.5923 33 29.0484 33 30.1608 32.4332C31.1392 31.9347 31.9347 31.1392 32.4332 30.1608C33 29.0484 33 27.5923 33 24.68L33 20" stroke="white" stroke-width="2" stroke-linejoin="round"/>
<path d="M49.2443 27.7856C50 29.2688 50 31.2103 50 35.0933V38.9066C50 42.7897 50 44.7312 49.2443 46.2143C48.5796 47.5189 47.5189 48.5796 46.2143 49.2443C44.7312 50 42.7897 50 38.9066 50H35.0933C31.2103 50 29.2688 50 27.7856 49.2443" stroke="white" stroke-width="2" stroke-linecap="round" stroke-linejoin="round"/>
</svg>
