<svg width="70" height="70" viewBox="0 0 70 70" fill="none" xmlns="http://www.w3.org/2000/svg">
<path d="M0 32C0 20.7989 0 15.1984 2.17987 10.9202C4.09734 7.15695 7.15695 4.09734 10.9202 2.17987C15.1984 0 20.7989 0 32 0H38C49.201 0 54.8016 0 59.0798 2.17987C62.8431 4.09734 65.9027 7.15695 67.8201 10.9202C70 15.1984 70 20.7989 70 32V38C70 49.201 70 54.8016 67.8201 59.0798C65.9027 62.8431 62.8431 65.9027 59.0798 67.8201C54.8016 70 49.2011 70 38 70H32C20.7989 70 15.1984 70 10.9202 67.8201C7.15695 65.9027 4.09734 62.8431 2.17987 59.0798C0 54.8016 0 49.2011 0 38V32Z" fill="#111A49"/>
<path fill-rule="evenodd" clip-rule="evenodd" d="M35 20C43.2843 20 50 26.7404 50 35.0551C50 42.7524 44.2444 49.0996 36.8172 50V39.6558H40.875L40.8751 39.6557L41.2571 37.5677L41.7168 35.0552H41.7168L41.7168 35.0551H36.8172V33.4281C36.8172 32.8203 36.8766 32.306 37.0041 31.8764C37.2322 31.1083 37.6781 30.6111 38.3919 30.3348C38.8755 30.1476 39.4821 30.0618 40.2271 30.0618C40.6091 30.0618 40.9538 30.0665 41.2473 30.0758C41.4152 30.0812 41.5663 30.088 41.698 30.0965C41.7966 30.1027 41.8843 30.1099 41.9601 30.1179V25.9474C41.6247 25.8539 41.047 25.7604 40.4345 25.6902C40.1213 25.6544 39.799 25.6246 39.4953 25.6041C39.2049 25.5845 38.9315 25.5733 38.6992 25.5733C33.6869 25.5733 31.3763 27.9485 31.3763 33.0728V35.0551H28.2832V35.0552H28.2832V39.6558H31.3763V49.6669C24.8429 48.04 20 42.1157 20 35.0551C20 26.7404 26.7157 20 35 20Z" fill="white"/>
</svg>
