<svg width="70" height="70" viewBox="0 0 70 70" fill="none" xmlns="http://www.w3.org/2000/svg">
<path d="M0 32C0 20.7989 0 15.1984 2.17987 10.9202C4.09734 7.15695 7.15695 4.09734 10.9202 2.17987C15.1984 0 20.7989 0 32 0H38C49.201 0 54.8016 0 59.0798 2.17987C62.8431 4.09734 65.9027 7.15695 67.8201 10.9202C70 15.1984 70 20.7989 70 32V38C70 49.201 70 54.8016 67.8201 59.0798C65.9027 62.8431 62.8431 65.9027 59.0798 67.8201C54.8016 70 49.2011 70 38 70H32C20.7989 70 15.1984 70 10.9202 67.8201C7.15695 65.9027 4.09734 62.8431 2.17987 59.0798C0 54.8016 0 49.2011 0 38V32Z" fill="#111A49"/>
<path d="M34.8887 31V42" stroke="white" stroke-width="1.5" stroke-linecap="round" stroke-linejoin="round"/>
<path d="M30 37.1111L34.8889 42" stroke="white" stroke-width="1.5" stroke-linecap="round" stroke-linejoin="round"/>
<path d="M39.7783 37.1111L34.8894 42" stroke="white" stroke-width="1.5" stroke-linecap="round" stroke-linejoin="round"/>
<path d="M20 29.0625C20 25.7149 20 24.041 20.9393 22.9247C21.0869 22.7493 21.2493 22.5869 21.4247 22.4393C22.541 21.5 24.2149 21.5 27.5625 21.5H28.0124C29.3847 21.5 30.0708 21.5 30.6902 21.7079C31.0859 21.8407 31.4583 22.0346 31.7941 22.2826C32.3196 22.6709 32.7131 23.233 33.5 24.3571C34.0902 25.2003 34.3853 25.6218 34.7795 25.913C35.0312 26.099 35.3106 26.2445 35.6073 26.3441C36.0719 26.5 36.5865 26.5 37.6157 26.5H40C44.714 26.5 47.0711 26.5 48.5355 27.9645C50 29.4289 50 31.786 50 36.5V38.5C50 43.214 50 45.5711 48.5355 47.0355C47.0711 48.5 44.714 48.5 40 48.5H30C25.286 48.5 22.9289 48.5 21.4645 47.0355C20 45.5711 20 43.214 20 38.5L20 29.0625Z" stroke="white" stroke-width="2" stroke-linecap="round" stroke-linejoin="round"/>
</svg>
