<svg width="70" height="70" viewBox="0 0 70 70" fill="none" xmlns="http://www.w3.org/2000/svg">
<path d="M0 32C0 20.7989 0 15.1984 2.17987 10.9202C4.09734 7.15695 7.15695 4.09734 10.9202 2.17987C15.1984 0 20.7989 0 32 0H38C49.201 0 54.8016 0 59.0798 2.17987C62.8431 4.09734 65.9027 7.15695 67.8201 10.9202C70 15.1984 70 20.7989 70 32V38C70 49.201 70 54.8016 67.8201 59.0798C65.9027 62.8431 62.8431 65.9027 59.0798 67.8201C54.8016 70 49.2011 70 38 70H32C20.7989 70 15.1984 70 10.9202 67.8201C7.15695 65.9027 4.09734 62.8431 2.17987 59.0798C0 54.8016 0 49.2011 0 38V32Z" fill="#111A49"/>
<path d="M42.7635 38.3961C42.3403 38.1837 40.2539 37.1558 39.865 37.0154C39.4761 36.8732 39.1935 36.803 38.9108 37.2278C38.6282 37.6509 37.8145 38.6085 37.5661 38.8911C37.3194 39.1738 37.071 39.2081 36.6479 38.9956C35.3975 38.4978 34.2433 37.786 33.2372 36.892C32.3093 36.0343 31.5138 35.0437 30.8767 33.9525C30.63 33.5276 30.851 33.2981 31.0634 33.0874C31.2535 32.8972 31.4882 32.5923 31.6989 32.3439C31.8734 32.1295 32.0165 31.8912 32.1238 31.6364C32.1802 31.5193 32.2065 31.39 32.2002 31.2601C32.1939 31.1303 32.1553 31.0041 32.0878 30.893C31.9816 30.6805 31.1336 28.5923 30.7807 27.7427C30.4364 26.917 30.087 27.0283 29.8249 27.0146C29.5782 27.0026 29.2955 26.9992 29.0129 26.9992C28.7979 27.0052 28.5864 27.0556 28.3918 27.1473C28.1973 27.239 28.0238 27.37 27.8823 27.532C27.4027 27.9862 27.0229 28.5353 26.7672 29.1443C26.5115 29.7533 26.3854 30.409 26.3971 31.0694C26.5346 32.6698 27.1366 34.1952 28.129 35.4582C29.9481 38.1855 32.4452 40.3927 35.3751 41.8633C36.1655 42.2028 36.9728 42.5013 37.7939 42.7575C38.6596 43.0203 39.5747 43.0772 40.4663 42.9236C41.0568 42.804 41.616 42.5632 42.1087 42.2165C42.6014 41.8697 43.0169 41.4246 43.3288 40.9091C43.607 40.2752 43.6928 39.5734 43.5754 38.8911C43.471 38.713 43.1883 38.6085 42.7635 38.3961V38.3961ZM47.0324 22.8434C44.1201 19.9318 40.249 18.1778 36.1398 17.9078C32.0306 17.6378 27.9633 18.8703 24.6951 21.3758C21.427 23.8813 19.1806 27.489 18.3744 31.5274C17.5681 35.5658 18.2568 39.7595 20.3123 43.3279L17.9038 52.1244L26.9041 49.7655C29.3934 51.121 32.1827 51.8312 35.0171 51.8314H35.0239C38.3817 51.8297 41.6636 50.8329 44.455 48.9667C47.2464 47.1006 49.422 44.449 50.7071 41.3469C51.9921 38.2448 52.3289 34.8315 51.6748 31.5381C51.0208 28.2447 49.4053 25.219 47.0324 22.8434V22.8434ZM42.5219 46.8071C40.2747 48.2157 37.6762 48.9631 35.0239 48.9638H35.0171C32.4902 48.9637 30.0098 48.2838 27.836 46.9955L27.3204 46.6906L21.9791 48.0919L23.4044 42.8842L23.0703 42.3498C21.5878 39.9855 20.8396 37.2347 20.9204 34.4452C21.0011 31.6557 21.9073 28.9528 23.5242 26.6783C25.1411 24.4038 27.3961 22.6598 30.0041 21.6669C32.6122 20.674 35.4561 20.4767 38.1762 21.1C40.8964 21.7233 43.3706 23.1393 45.2861 25.1687C47.2015 27.1982 48.4721 29.7501 48.9373 32.5017C49.4024 35.2534 49.0412 38.0811 47.8993 40.6274C46.7574 43.1738 44.886 45.3243 42.5219 46.8071" fill="white"/>
</svg>
