<svg width="70" height="70" viewBox="0 0 70 70" fill="none" xmlns="http://www.w3.org/2000/svg">
<path d="M0 32C0 20.7989 0 15.1984 2.17987 10.9202C4.09734 7.15695 7.15695 4.09734 10.9202 2.17987C15.1984 0 20.7989 0 32 0H38C49.201 0 54.8016 0 59.0798 2.17987C62.8431 4.09734 65.9027 7.15695 67.8201 10.9202C70 15.1984 70 20.7989 70 32V38C70 49.201 70 54.8016 67.8201 59.0798C65.9027 62.8431 62.8431 65.9027 59.0798 67.8201C54.8016 70 49.2011 70 38 70H32C20.7989 70 15.1984 70 10.9202 67.8201C7.15695 65.9027 4.09734 62.8431 2.17987 59.0798C0 54.8016 0 49.2011 0 38V32Z" fill="#111A49"/>
<path d="M42.9612 21.9023H47.3202L37.7971 32.7866L49.0002 47.5977H40.2282L33.3577 38.6149L25.4962 47.5977H21.1346L31.3205 35.9557L20.5732 21.9023H29.5679L35.7783 30.113L42.9612 21.9023ZM41.4313 44.9887H43.8467L28.2555 24.3744H25.6636L41.4313 44.9887Z" fill="white"/>
</svg>
