<svg width="31" height="178" viewBox="0 0 31 178" fill="none" xmlns="http://www.w3.org/2000/svg">
<g id="Folder Back Right">
<path id="Fill" d="M0 177.5C14.1422 177.5 21.7132 177.5 26.1066 173.107C30.5 168.713 30.5 161.642 30.5 147.5V31.5C30.5 24.9003 30.5 21.6005 28.4497 19.5503C26.3995 17.5 23.0997 17.5 16.5 17.5L0 17.5V177.5Z" fill="white"/>
<path id="Stroke" d="M0 177.5C14.1422 177.5 21.7132 177.5 26.1066 173.107C30.5 168.713 30.5 161.642 30.5 147.5V31.5C30.5 24.9003 30.5 21.6005 28.4497 19.5503C26.3995 17.5 23.0997 17.5 16.5 17.5L0 17.5" stroke="rgb(var(--Brand-Black))" stroke-linejoin="round"/>
</g>
</svg>
