<svg width="109" height="178" viewBox="0 0 109 178" fill="none" xmlns="http://www.w3.org/2000/svg">
<g id="Folder Back Left">
<path id="Fill" d="M2.55025 2.55025C0.5 4.6005 0.5 7.90034 0.5 14.5V147.5C0.5 161.642 0.5 168.713 4.8934 173.107C9.28678 177.5 16.3578 177.5 30.4998 177.5H30.5H109V17.5H104.125L87.3784 3.69676C85.4588 2.11452 84.499 1.3234 83.3522 0.911702C82.2054 0.5 80.9616 0.5 78.4739 0.5H14.5C7.90034 0.5 4.6005 0.5 2.55025 2.55025Z" fill="white"/>
<path id="Stroke" d="M109 17.5H104.125L87.3784 3.69676C85.4588 2.11452 84.499 1.3234 83.3522 0.911702C82.2054 0.5 80.9616 0.5 78.4739 0.5H14.5C7.90034 0.5 4.6005 0.5 2.55025 2.55025C0.5 4.6005 0.5 7.90034 0.5 14.5V147.5C0.5 161.642 0.5 168.713 4.8934 173.107C9.2868 177.5 16.3579 177.5 30.5 177.5H109" stroke="rgb(var(--Brand-Black))" stroke-linejoin="round"/>
</g>
</svg>
