<svg width="35" height="146" viewBox="0 0 35 146" fill="none" xmlns="http://www.w3.org/2000/svg">
<g id="Folder Front Left">
<path id="Fill" d="M0.661752 15.0788L4.88489 116.74C5.45004 130.345 5.73261 137.147 10.1024 141.324C14.4722 145.5 21.3069 145.5 34.9765 145.5L34.9765 0.5H14.7045C7.82415 0.5 4.38398 0.500002 2.30952 2.65366C0.235062 4.80731 0.377292 8.23115 0.661752 15.0788Z" fill="white"/>
<path id="Stroke" d="M35 145.5C21.3305 145.5 14.4722 145.5 10.1024 141.324C5.73261 137.147 5.45004 130.345 4.88489 116.74L0.661752 15.0788C0.377292 8.23115 0.235062 4.80731 2.30952 2.65366C4.38398 0.500002 7.82415 0.5 14.7045 0.5H35" stroke="rgb(var(--Brand-Black))"/>
</g>
</svg>
