<svg width="35" height="146" viewBox="0 0 35 146" fill="none" xmlns="http://www.w3.org/2000/svg">
<g id="Folder Front Right">
<path id="Fill" d="M34.3382 15.0788L30.115 116.74C29.5499 130.345 29.2673 137.147 24.8975 141.324C20.5278 145.5 13.693 145.5 0.0234375 145.5V0.5H20.2954C27.1758 0.5 30.6159 0.500002 32.6904 2.65366C34.7648 4.80731 34.6226 8.23115 34.3382 15.0788Z" fill="white"/>
<path id="Stroke" d="M0.0234375 145.5C13.693 145.5 20.5278 145.5 24.8975 141.324C29.2673 137.147 29.5499 130.345 30.115 116.74L34.3382 15.0788C34.6226 8.23115 34.7649 4.80731 32.6904 2.65366C30.6159 0.500002 27.1758 0.5 20.2954 0.5H0.0234375" stroke="rgb(var(--Brand-Black))"/>
</g>
</svg>
