<svg width="27" height="27" viewBox="0 0 27 27" fill="none" xmlns="http://www.w3.org/2000/svg">
<path d="M3 13.5L3 15.04C3 18.1763 3 19.7444 3.61036 20.9423C4.14725 21.9961 5.00395 22.8527 6.05765 23.3896C7.25556 24 8.82371 24 11.96 24H15.04C18.1763 24 19.7444 24 20.9423 23.3896C21.9961 22.8527 22.8527 21.9961 23.3896 20.9423C24 19.7444 24 18.1763 24 15.04V11.96C24 8.82371 24 7.25556 23.3896 6.05765C22.8527 5.00395 21.9961 4.14725 20.9423 3.61036C19.7444 3 18.1763 3 15.04 3L13.5 3M3 13.5L13.5 3M3 13.5L6.78 13.5C9.13222 13.5 10.3083 13.5 11.2068 13.0422C11.997 12.6396 12.6396 11.997 13.0422 11.2068C13.5 10.3083 13.5 9.13222 13.5 6.78L13.5 3" stroke="rgb(var(--Brand-Black))" stroke-width="1.5"/>
</svg>
