<svg width="35" height="35" viewBox="0 0 35 35" fill="none" xmlns="http://www.w3.org/2000/svg">
<path d="M17.5587 21.2476L17.72 20.3338C17.798 19.8917 17.837 19.6707 17.9141 19.4645C17.9825 19.2815 18.0731 19.1076 18.1838 18.9466C18.3085 18.7651 18.4672 18.6064 18.7846 18.289L28.0967 8.97691C28.7552 8.3184 29.0845 7.98915 29.4589 7.85287C29.8559 7.70836 30.2912 7.70836 30.6882 7.85288C31.0627 7.98915 31.3919 8.3184 32.0504 8.97691C32.7089 9.63541 33.0382 9.96467 33.1744 10.3391C33.319 10.7361 33.319 11.1714 33.1744 11.5685C33.0382 11.9429 32.7089 12.2721 32.0504 12.9306L22.7383 22.2427C22.4209 22.5601 22.2622 22.7189 22.0808 22.8435C21.9198 22.9542 21.7458 23.0448 21.5628 23.1132C21.3566 23.1903 21.1356 23.2293 20.6935 23.3074L19.7798 23.4686C18.8725 23.6287 18.4188 23.7088 18.0921 23.5701C17.8062 23.4488 17.5786 23.2211 17.4572 22.9353C17.3186 22.6085 17.3986 22.1549 17.5587 21.2476Z" stroke="rgb(var(--Brand-Black))" stroke-width="2"/>
<path d="M26.6846 10.3889L30.6383 14.3426" stroke="rgb(var(--Brand-Black))" stroke-width="2"/>
<path d="M3.4729 17.5L3.4729 19.4067C3.4729 23.2897 3.4729 25.2312 4.22859 26.7143C4.89331 28.0189 5.95398 29.0796 7.25857 29.7443C8.74169 30.5 10.6832 30.5 14.5662 30.5H18.3796C22.2626 30.5 24.2041 30.5 25.6872 29.7443C26.9918 29.0796 28.0525 28.0189 28.7172 26.7143C29.3617 25.4495 29.4565 23.8514 29.4705 21M3.4729 17.5L16.4729 4.5M3.4729 17.5L8.1529 17.5C11.0652 17.5 12.5213 17.5 13.6337 16.9332C14.6121 16.4347 15.4076 15.6392 15.9061 14.6608C16.4729 13.5484 16.4729 12.0923 16.4729 9.18L16.4729 4.5M16.4729 4.5L18.3796 4.5C22.2626 4.5 24.2041 4.5 25.6872 5.25569" stroke="rgb(var(--Brand-Black))" stroke-width="2" stroke-linecap="round" stroke-linejoin="round"/>
</svg>
