<svg width="35" height="36" viewBox="0 0 35 36" fill="none" xmlns="http://www.w3.org/2000/svg">
<path d="M3 9.91102C3 7.64828 3 6.51691 3.70294 5.81397C4.40589 5.11102 5.53726 5.11102 7.8 5.11102H11.6353C12.8515 5.11102 13.4596 5.11102 13.9781 5.37904C14.4966 5.64706 14.8482 6.14319 15.5515 7.13545L16.4239 8.36637C16.9513 9.11056 17.2151 9.48266 17.6039 9.68367C17.9928 9.88469 18.4488 9.88469 19.361 9.88469H26C28.8284 9.88469 30.2426 9.88469 31.1213 10.7634C32 11.642 32 13.0563 32 15.8847V20.8888C32 25.6028 32 27.9599 30.5355 29.4243C29.0711 30.8888 26.714 30.8888 22 30.8888H13C8.28596 30.8888 5.92893 30.8888 4.46447 29.4243C3 27.9599 3 25.6028 3 20.8888L3 9.91102Z" stroke="rgb(var(--Brand-Black))" stroke-width="2" stroke-linecap="round" stroke-linejoin="round"/>
<path d="M11.0562 19.7897H23.945" stroke="rgb(var(--Brand-Black))" stroke-width="2" stroke-linecap="round" stroke-linejoin="round"/>
<path d="M18.9312 14.7776L23.9435 19.7899L18.9312 24.8023" stroke="rgb(var(--Brand-Black))" stroke-width="2" stroke-linecap="round" stroke-linejoin="round"/>
</svg>
