<svg width="35" height="36" viewBox="0 0 35 36" fill="none" xmlns="http://www.w3.org/2000/svg">
<path d="M6.25 12.8782L7.79582 23.0583C8.3882 26.9595 8.68439 28.9101 10.003 30.1051C10.0677 30.1638 10.134 30.2207 10.2017 30.2759C11.5811 31.4002 13.5541 31.4002 17.5 31.4002V31.4002C21.4459 31.4002 23.4189 31.4002 24.7983 30.2759C24.866 30.2207 24.9323 30.1638 24.997 30.1051C26.3156 28.9101 26.6118 26.9595 27.2042 23.0583L28.75 12.8782" stroke="#D41F4A" stroke-width="2" stroke-linejoin="round"/>
<path d="M4 12.8782L31 12.8782" stroke="#D41F4A" stroke-width="2" stroke-linecap="round" stroke-linejoin="round"/>
<path d="M14.5 26.108L13.75 16.847M20.5 26.108L21.25 16.847" stroke="#D41F4A" stroke-width="2" stroke-linecap="round" stroke-linejoin="round"/>
<path d="M5.08008 12.68L5.80406 11.2084C6.87331 9.03504 7.40794 7.94836 8.37853 7.34417C9.34912 6.73999 10.5602 6.73999 12.9824 6.73999H22.0178C24.44 6.73999 25.651 6.73999 26.6216 7.34417C27.5922 7.94836 28.1268 9.03504 29.1961 11.2084L29.9201 12.68" stroke="#D41F4A" stroke-width="2" stroke-linecap="round" stroke-linejoin="round"/>
<path d="M12.2505 6.20004L12.6075 5.55745C13.1649 4.55417 13.4435 4.05252 13.913 3.77626C14.3825 3.5 14.9564 3.5 16.1041 3.5H18.8969C20.0446 3.5 20.6184 3.5 21.0879 3.77626C21.5574 4.05252 21.8361 4.55417 22.3935 5.55745L22.7505 6.20004" stroke="#D41F4A" stroke-width="2" stroke-linecap="round" stroke-linejoin="round"/>
</svg>
