<svg width="17" height="17" viewBox="0 0 17 17" fill="none" xmlns="http://www.w3.org/2000/svg">
<path fill-rule="evenodd" clip-rule="evenodd" d="M0.75 1.5C0.75 1.08579 1.08579 0.75 1.5 0.75H15.5C15.9142 0.75 16.25 1.08579 16.25 1.5C16.25 1.91421 15.9142 2.25 15.5 2.25H1.5C1.08579 2.25 0.75 1.91421 0.75 1.5ZM0.75 5C0.75 4.58579 1.08579 4.25 1.5 4.25H14.2826C14.6968 4.25 15.0326 4.58579 15.0326 5C15.0326 5.41421 14.6968 5.75 14.2826 5.75H1.5C1.08579 5.75 0.75 5.41421 0.75 5ZM0.75 8.5C0.75 8.08579 1.08579 7.75 1.5 7.75H15.5C15.9142 7.75 16.25 8.08579 16.25 8.5C16.25 8.91421 15.9142 9.25 15.5 9.25H1.5C1.08579 9.25 0.75 8.91421 0.75 8.5ZM0.75 12C0.75 11.5858 1.08579 11.25 1.5 11.25H12.4565C12.8707 11.25 13.2065 11.5858 13.2065 12C13.2065 12.4142 12.8707 12.75 12.4565 12.75H1.5C1.08579 12.75 0.75 12.4142 0.75 12ZM0.75 15.5C0.75 15.0858 1.08579 14.75 1.5 14.75H15.5C15.9142 14.75 16.25 15.0858 16.25 15.5C16.25 15.9142 15.9142 16.25 15.5 16.25H1.5C1.08579 16.25 0.75 15.9142 0.75 15.5Z" fill="#111A49"/>
</svg>
