<svg width="48" height="48" viewBox="0 0 48 48" fill="none" xmlns="http://www.w3.org/2000/svg">
<g clip-path="url(#clip0_368_10035)">
<path d="M0.5 15.54V0.5L47.5 47.5H28.2913C18.5634 47.5 13.6995 47.5 9.98395 45.3229C6.71565 43.4078 4.05845 40.352 2.39317 36.5935C0.5 32.3206 0.5 26.727 0.5 15.54Z" fill="white"/>
<path fill-rule="evenodd" clip-rule="evenodd" d="M0.308658 0.0380748C0.495495 -0.0393156 0.710554 0.00346223 0.853553 0.146461L47.8536 47.1465C47.9966 47.2895 48.0393 47.5045 47.9619 47.6914C47.8845 47.8782 47.7022 48 47.5 48H28.2643C23.4232 48 19.756 48 16.8362 47.7257C13.9028 47.4501 11.6769 46.8944 9.73117 45.7543C6.36465 43.7816 3.63995 40.6418 1.93603 36.796C0.955886 34.5838 0.476392 32.0518 0.237903 28.695C-6.55651e-07 25.3464 -3.56751e-07 21.1368 8.76684e-10 15.5607V0.500015C8.76684e-10 0.297783 0.121821 0.115465 0.308658 0.0380748ZM1 1.70712V15.54C1 21.1407 1.00029 25.3151 1.23539 28.6241C1.47019 31.9291 1.93728 34.3302 2.85031 36.3909C4.47695 40.0623 7.06665 43.034 10.2367 44.8915C12.0066 45.9285 14.0704 46.4614 16.9298 46.7301C19.7974 46.9995 23.4179 47 28.2913 47H46.2929L1 1.70712Z" fill="#111A49"/>
<path fill-rule="evenodd" clip-rule="evenodd" d="M0 0H0.5V1H0V0Z" fill="#111A49"/>
<path fill-rule="evenodd" clip-rule="evenodd" d="M47 48V47.5H48V48H47Z" fill="#111A49"/>
</g>
<defs>
<clipPath id="clip0_368_10035">
<rect width="48" height="48" fill="white"/>
</clipPath>
</defs>
</svg>
