<svg width="48" height="48" viewBox="0 0 48 48" fill="none" xmlns="http://www.w3.org/2000/svg">
<g clip-path="url(#clip0_368_10026)">
<path d="M37.0076 42.9071C29.9979 48 19.9986 48 0 48L4.19629e-06 -4.19629e-06L48 0C48 19.9986 48 29.9979 42.9071 37.0076C41.2623 39.2715 39.2715 41.2623 37.0076 42.9071Z" fill="white"/>
<path fill-rule="evenodd" clip-rule="evenodd" d="M0.0320511 48L0 48L8.74228e-08 47C9.90627 47 17.2958 46.9993 23.0773 46.3729C28.8494 45.7476 32.9593 44.5033 36.3282 42.0557C38.526 40.4588 40.4588 38.526 42.0557 36.3282C44.5033 32.9593 45.7476 28.8494 46.3729 23.0773C46.9993 17.2958 47 9.90627 47 -8.74228e-08L48 0L48 0.0320511C48 9.9001 48 17.3435 47.3671 23.185C46.7325 29.0422 45.4568 33.3482 42.8647 36.916C41.2062 39.1987 39.1987 41.2062 36.916 42.8647C33.3482 45.4568 29.0422 46.7325 23.185 47.3671C17.3435 48 9.9001 48 0.0320511 48Z" fill="#111A49"/>
</g>
<defs>
<clipPath id="clip0_368_10026">
<rect width="48" height="48" fill="white" transform="translate(48 48) rotate(-180)"/>
</clipPath>
</defs>
</svg>
